<svg width="36" height="30" viewBox="0 0 36 30" fill="none" xmlns="http://www.w3.org/2000/svg">
<path d="M11.1183 14.3227C12.9437 14.3227 14.6944 13.5682 15.9851 12.2252C17.2759 10.8822 18.0011 9.06068 18.0011 7.16137C18.0011 5.26206 17.2759 3.44053 15.9851 2.09752C14.6944 0.754499 12.9437 0 11.1183 0C9.29288 0 7.54222 0.754499 6.25146 2.09752C4.96069 3.44053 4.23554 5.26206 4.23554 7.16137C4.23554 9.06068 4.96069 10.8822 6.25146 12.2252C7.54222 13.5682 9.29288 14.3227 11.1183 14.3227ZM23.1621 25.6597C24.2845 26.1379 25.7119 26.442 27.5289 26.442C36 26.442 36 19.8315 36 19.8315C36 18.9553 35.6656 18.1149 35.0703 17.4951C34.475 16.8753 33.6676 16.5268 32.8255 16.5262H23.0244C23.8567 17.5751 24.3565 18.917 24.3565 20.3824V21.1668C24.3522 21.3523 24.3401 21.5376 24.3205 21.7221C24.1776 23.0989 23.7852 24.435 23.1642 25.6597H23.1621ZM32.8255 8.81399C32.8255 10.275 32.2677 11.6762 31.2748 12.7093C30.2819 13.7424 28.9352 14.3227 27.531 14.3227C26.1269 14.3227 24.7802 13.7424 23.7873 12.7093C22.7944 11.6762 22.2366 10.275 22.2366 8.81399C22.2366 7.35298 22.7944 5.95181 23.7873 4.91872C24.7802 3.88563 26.1269 3.30525 27.531 3.30525C28.9352 3.30525 30.2819 3.88563 31.2748 4.91872C32.2677 5.95181 32.8255 7.35298 32.8255 8.81399ZM0 20.9332C0 19.7644 0.446243 18.6435 1.24056 17.817C2.03488 16.9905 3.11221 16.5262 4.23554 16.5262H18.0011C19.1244 16.5262 20.2017 16.9905 20.996 17.817C21.7904 18.6435 22.2366 19.7644 22.2366 20.9332C22.2366 20.9332 22.2366 29.7472 11.1183 29.7472C0 29.7472 0 20.9332 0 20.9332ZM24.3544 21.1668L24.348 21.3078L24.3523 21.1668H24.3544Z" fill="#DFF6FF"/>
</svg>
