<svg width="44" height="43" viewBox="0 0 44 43" fill="none" xmlns="http://www.w3.org/2000/svg">
<path d="M21.5996 8.92414C23.0318 8.92414 24.4053 9.48828 25.418 10.4924C26.4307 11.4966 26.9996 12.8585 26.9996 14.2786C26.9996 15.6987 26.4307 17.0607 25.418 18.0648C24.4053 19.069 23.0318 19.6331 21.5996 19.6331C20.1674 19.6331 18.7939 19.069 17.7812 18.0648C16.7685 17.0607 16.1996 15.6987 16.1996 14.2786C16.1996 12.8585 16.7685 11.4966 17.7812 10.4924C18.7939 9.48828 20.1674 8.92414 21.5996 8.92414ZM21.5996 3.56964C19.2358 3.56964 16.8952 4.0313 14.7113 4.92826C12.5274 5.82523 10.5431 7.13993 8.87169 8.7973C5.49603 12.1445 3.59961 16.6843 3.59961 21.418C3.59961 26.1516 5.49603 30.6914 8.87169 34.0387C10.5431 35.696 12.5274 37.0107 14.7113 37.9077C16.8952 38.8047 19.2358 39.2663 21.5996 39.2663C26.3735 39.2663 30.9519 37.3859 34.3275 34.0387C37.7032 30.6914 39.5996 26.1516 39.5996 21.418C39.5996 11.5478 31.4996 3.56964 21.5996 3.56964Z" fill="white"/>
<path d="M21.5998 34.2688C17.0998 34.2688 13.1218 31.9842 10.7998 28.5573C10.8538 24.9877 17.9998 23.0244 21.5998 23.0244C25.1998 23.0244 32.3458 24.9877 32.3998 28.5573C31.2098 30.3143 29.6024 31.7542 27.719 32.7502C25.8357 33.7462 23.7343 34.2677 21.5998 34.2688Z" fill="#1922B0"/>
</svg>
